# xmcd CD database file
#
# Track frame offsets:
#	150
#	5460
#	26588
#	51700
#	76703
#	100156
#	129438
#	148332
#	173195
#	195388
#	216183
#	245273
#	272698
#
# Disc length: 3962 seconds
#
# Revision: 1
# Processed by: cddbd v1.5.2PL0 Copyright (c) Steve Scherf et al.
# Submitted via: CDex 1.50
#
DISCID=b20f780d
DTITLE=Thomas D. präsentiert Reflektor Falke - Lektionen in Demut
DYEAR=2001
DGENRE=New Age
TTITLE0=Prolog
TTITLE1=König der Narren
TTITLE2=Aud em Planeten des ewigen Regens
TTITLE3=Seelenlos
TTITLE4=Lektionen in Demut
TTITLE5=Avatar Iso Superstar
TTITLE6=Die Speicherstadt
TTITLE7=Uns trennt das Leben
TTITLE8=Wo ist dein Paradies?
TTITLE9=Ich bin der Strurm
TTITLE10=Denk jetzt nicht
TTITLE11=Gebet an den Planeten
TTITLE12=Bist Du glücklich?
EXTD=YEAR: 2001
EXTT0=
EXTT1=
EXTT2=
EXTT3=
EXTT4=
EXTT5=
EXTT6=
EXTT7=
EXTT8=
EXTT9=
EXTT10=
EXTT11=
EXTT12=
PLAYORDER=
